<svg width="500" height="500" viewBox="0 0 500 500" fill="none" xmlns="http://www.w3.org/2000/svg">
<rect width="500" height="500" rx="250" fill="black"/>
<path d="M175.596 391.85C175.596 391.144 176.528 388.318 177.659 385.565C178.791 382.811 181.673 375.241 184.065 368.739C186.458 362.229 189.46 354.282 190.728 351.079C200.056 327.606 206.261 310.307 205.804 309.103C205.587 308.541 204.03 307.626 202.344 307.08C200.658 306.534 196.211 304.567 192.454 302.705C188.697 300.842 183.905 298.675 181.794 297.88C179.682 297.086 177.756 296.122 177.515 295.737C177.282 295.352 177.981 292.237 179.088 288.833C187.501 262.776 205.298 208.253 208.493 198.74C215.268 178.567 237.705 110.084 237.898 108.961C238.002 108.366 238.243 107.732 238.42 107.548C238.917 107.05 410 106.761 410 107.259C410 107.491 379.439 137.835 342.095 174.69L274.19 241.688L281.688 241.92C285.814 242.057 298.128 242.057 309.054 241.92C320.565 241.784 328.922 241.993 328.922 242.418C328.922 242.811 323.206 248.776 316.214 255.663C285.549 285.879 211.383 358.889 195.007 374.993C185.149 384.682 176.752 392.725 176.343 392.87C175.933 393.022 175.596 392.565 175.596 391.85ZM271.124 310.395C271.124 309.994 286.601 294.452 305.522 275.853L339.92 242.033L354.586 241.993L369.252 241.944L371.813 246.456L374.366 250.967L385.958 255.029C392.339 257.269 398.761 259.396 400.231 259.758C401.7 260.119 403.08 260.592 403.297 260.809C404.06 261.572 400.15 279.016 399.211 279.016C398.697 279.016 397.517 277.209 396.578 275.002C395.623 272.73 394.362 270.988 393.688 270.988C393.022 270.988 383.333 274.095 372.142 277.884C360.952 281.681 349.087 285.63 345.78 286.674C342.472 287.717 333.795 290.591 326.514 293.048C319.233 295.512 312.722 297.647 312.064 297.784C311.406 297.928 310.314 298.233 309.656 298.466C293.713 304.134 272.729 311.134 271.726 311.126C271.397 311.126 271.124 310.797 271.124 310.395ZM161.95 288.954C157.759 287.051 151.257 284.097 147.5 282.387C141.038 279.441 132.769 275.724 123.819 271.743C121.611 270.755 115.47 267.986 110.172 265.569C87.1571 255.102 75.3005 249.779 70.3555 247.7C63.4037 244.77 60 242.988 60 242.266C60 241.952 88.5378 241.784 123.417 241.896C158.297 242.017 186.835 242.241 186.835 242.41C186.835 244.176 170.804 291.771 170.089 292.141C169.808 292.277 166.14 290.848 161.95 288.954Z" fill="white"/>
</svg>
